<?xml version="1.0" standalone="no"?><!-- Generator: Gravit.io -->
<svg xmlns="http://www.w3.org/2000/svg" xmlns:xlink="http://www.w3.org/1999/xlink" style="isolation:isolate"
     viewBox="0 0 24 24" width="24" height="24">
    <defs>
        <clipPath id="_clipPath_u9NhUDiaSY7Tq8xfuE2IZ6olLJiOLmvX">
            <rect width="24" height="24"/>
        </clipPath>
    </defs>
    <g clip-path="url(#_clipPath_u9NhUDiaSY7Tq8xfuE2IZ6olLJiOLmvX)">
        <g>
            <path d=" M 0.008 0 L 24.008 0 L 24.008 24 L 0.008 24 L 0.008 0 Z " fill="none"/>
            <path d=" M 20.008 4 L 4.008 4 C 2.908 4 2.018 4.9 2.018 6 L 2.008 18 C 2.008 19.1 2.908 20 4.008 20 L 20.008 20 C 21.108 20 22.008 19.1 22.008 18 L 22.008 6 C 22.008 4.9 21.108 4 20.008 4 Z  M 20.008 18 L 4.008 18 L 4.008 8 L 12.008 13 L 20.008 8 L 20.008 18 Z  M 12.008 11 L 4.008 6 L 20.008 6 L 12.008 11 Z "
                  fill="rgb(0,0,0)"/>
        </g>
        <g>
            <path d=" M 20.905 20.107 C 20.705 20.107 20.605 20.207 20.405 20.207 C 18.805 20.207 16.605 14.807 16.605 13.007 C 16.605 12.307 16.805 12.107 17.005 11.907 C 15.005 12.107 12.805 12.807 12.105 13.707 C 11.905 13.907 11.805 14.307 11.805 14.707 C 11.805 17.507 14.805 23.907 16.905 23.907 C 17.905 23.907 19.505 22.307 20.905 20.107 Z  M 19.905 11.707 C 21.805 11.707 23.805 12.007 23.805 13.107 C 23.805 15.307 22.405 18.007 21.705 18.007 C 20.405 18.107 18.805 14.507 18.805 12.707 C 18.805 11.907 19.105 11.707 19.905 11.707 Z "
                  fill="rgb(244,151,0)"/>
        </g>
    </g>
</svg>
