<?xml version="1.0" standalone="no"?><!-- Generator: Gravit.io --><svg xmlns="http://www.w3.org/2000/svg" xmlns:xlink="http://www.w3.org/1999/xlink" style="isolation:isolate" viewBox="0 0 64 64" width="64" height="64"><defs><clipPath id="_clipPath_4yj3MVReXS8307fL6lV8A82VR6oWTYiy"><rect width="64" height="64"/></clipPath></defs><g clip-path="url(#_clipPath_4yj3MVReXS8307fL6lV8A82VR6oWTYiy)"><rect x="0" y="0" width="64" height="64" transform="matrix(1,0,0,1,0,0)" fill="rgb(165,200,90)"/><path d=" M 48.8 15.953 L 15.2 15.953 C 12.89 15.953 11.021 17.843 11.021 20.153 L 11 45.353 C 11 47.663 12.89 49.553 15.2 49.553 L 48.8 49.553 C 51.11 49.553 53 47.663 53 45.353 L 53 20.153 C 53 17.843 51.11 15.953 48.8 15.953 Z  M 48.8 45.353 L 15.2 45.353 L 15.2 24.353 L 32 34.853 L 48.8 24.353 L 48.8 45.353 Z  M 32 30.653 L 15.2 20.153 L 48.8 20.153 L 32 30.653 Z " fill="rgb(255,255,255)"/></g></svg>